HIERARCHY
ROOT Hips
{
    OFFSET 0.000000 0.000000 0.000000
    CHANNELS 6 Xposition Yposition Zposition Zrotation Xrotation Yrotation
    JOINT Spine
    {
        OFFSET -0.000000 7.856138 0.000000
        CHANNELS 3 Zrotation Xrotation Yrotation
        JOINT Spine1
        {
            OFFSET -0.000000 20.830866 0.000000
            CHANNELS 3 Zrotation Xrotation Yrotation
            JOINT Neck
            {
                OFFSET -0.000000 20.745317 1.885938
                CHANNELS 3 Zrotation Xrotation Yrotation
                JOINT Head
                {
                    OFFSET -0.000000 13.412918 -1.916131
                    CHANNELS 3 Zrotation Xrotation Yrotation
                    End Site
                    {
                        OFFSET -0.000000 23.951641 0.000000
                    }
                }
            }
            JOINT LeftShoulder
            {
                OFFSET 3.826675 19.078362 -0.073511
                CHANNELS 3 Zrotation Xrotation Yrotation
                JOINT LeftArm
                {
                    OFFSET 10.442133 0.000000 0.000000
                    CHANNELS 3 Zrotation Xrotation Yrotation
                    JOINT LeftForeArm
                    {
                        OFFSET 37.051945 0.000000 0.000000
                        CHANNELS 3 Zrotation Xrotation Yrotation
                        JOINT LeftHand
                        {
                            OFFSET 24.394852 0.000000 0.000000
                            CHANNELS 3 Zrotation Xrotation Yrotation
                            End Site
                            {
                                OFFSET 14.370985 0.000000 0.000000
                            }
                        }
                    }
                }
            }
            JOINT RightShoulder
            {
                OFFSET -3.827599 19.078362 -0.073511
                CHANNELS 3 Zrotation Xrotation Yrotation
                JOINT RightArm
                {
                    OFFSET -10.442133 0.000000 0.000000
                    CHANNELS 3 Zrotation Xrotation Yrotation
                    JOINT RightForeArm
                    {
                        OFFSET -37.051945 0.000000 0.000000
                        CHANNELS 3 Zrotation Xrotation Yrotation
                        JOINT RightHand
                        {
                            OFFSET -24.394852 0.000000 0.000000
                            CHANNELS 3 Zrotation Xrotation Yrotation
                            End Site
                            {
                                OFFSET -14.370985 0.000000 0.000000
                            }
                        }
                    }
                }
            }
        }
    }
    JOINT LeftUpLeg
    {
        OFFSET 9.580656 0.000000 0.000000
        CHANNELS 3 Zrotation Xrotation Yrotation
        JOINT LeftLeg
        {
            OFFSET -0.000000 -43.769192 0.000000
            CHANNELS 3 Zrotation Xrotation Yrotation
            JOINT LeftFoot
            {
                OFFSET -0.000000 -42.531967 0.000000
                CHANNELS 3 Zrotation Xrotation Yrotation
                JOINT LeftToeBase
                {
                    OFFSET -0.000000 -6.227426 14.370985
                    CHANNELS 3 Zrotation Xrotation Yrotation
                    End Site
                    {
                        OFFSET -0.000000 0.000000 3.832262
                    }
                }
            }
        }
    }
    JOINT RightUpLeg
    {
        OFFSET -9.580656 0.000000 0.000000
        CHANNELS 3 Zrotation Xrotation Yrotation
        JOINT RightLeg
        {
            OFFSET -0.000000 -43.769192 0.000000
            CHANNELS 3 Zrotation Xrotation Yrotation
            JOINT RightFoot
            {
                OFFSET -0.000000 -42.531967 0.000000
                CHANNELS 3 Zrotation Xrotation Yrotation
                JOINT RightToeBase
                {
                    OFFSET -0.000000 -6.227426 14.370985
                    CHANNELS 3 Zrotation Xrotation Yrotation
                    End Site
                    {
                        OFFSET -0.000000 0.000000 3.832262
                    }
                }
            }
        }
    }
}
MOTION
Frames:    8
Frame Time:    0.008333
14.632845    92.874046    25.210976    -0.509829    -1.451432    89.568573    -0.170788    -7.305595    1.585188    3.977585    6.291212    1.377442    1.046064    0.911618    -4.188529    3.121999    1.414418    -4.099721    10.145680    -0.715003    5.283498    -16.738504    2.599238    -15.471652    4.718543    -5.820956    -3.085708    -2.665128    -5.714421    0.863236    -15.412641    0.800501    -1.220434    21.759529    0.549198    5.808949    -3.967965    -3.465190    3.451397    -3.100378    -3.104848    -8.900465    3.852234    4.541689    -0.383214    -4.150110    0.118134    -2.553838    6.455862    -7.606206    17.687160    0.000000    0.000000    0.000000    -0.368312    0.716081    -2.221493    2.691839    4.819802    -1.608427    0.094506    -7.970840    -4.995186    0.000000    0.000000    0.000000    
14.647010    92.873268    25.210323    -0.500271    -1.449958    89.563873    -0.141383    -7.308271    1.599980    3.905829    6.268049    1.395093    1.135181    0.946216    -4.190246    3.094069    1.395162    -4.116819    10.195214    -0.686651    5.241465    -16.756872    2.585088    -15.473045    4.733412    -5.831126    -3.097759    -2.647707    -5.723879    0.877143    -15.335499    0.794117    -1.198711    21.723663    0.552595    5.787677    -3.973797    -3.476507    3.479788    -3.128504    -3.114191    -8.849944    3.847621    4.566834    -0.395107    -4.147394    0.102599    -2.531243    6.434950    -7.611023    17.690945    0.000000    0.000000    0.000000    -0.370002    0.734490    -2.206746    2.690291    4.818322    -1.621533    0.104955    -7.975032    -4.989360    0.000000    0.000000    0.000000    
14.659945    92.874405    25.211153    -0.494086    -1.448738    89.560425    -0.121445    -7.321100    1.596211    3.878497    6.272653    1.391378    1.147716    0.928322    -4.173805    3.095503    1.415207    -4.102003    10.193884    -0.685223    5.238907    -16.747282    2.597517    -15.459236    4.736537    -5.860207    -3.126706    -2.659166    -5.751579    0.867985    -15.337350    0.810527    -1.164526    21.726870    0.514081    5.805745    -3.987932    -3.467814    3.487147    -2.989077    -3.112899    -8.953375    3.847239    4.580986    -0.411722    -4.147555    0.101045    -2.525209    6.448540    -7.605635    17.701935    0.000000    0.000000    0.000000    -0.369140    0.748850    -2.238293    2.685897    4.819926    -1.597442    0.117929    -7.978124    -4.981075    0.000000    0.000000    0.000000    
14.672468    92.874451    25.211365    -0.491955    -1.447385    89.546806    -0.076623    -7.332904    1.602880    3.790461    6.263850    1.400302    1.144692    1.075236    -4.212841    3.230890    1.173742    -4.116318    10.235512    -0.667038    5.239961    -16.752096    2.598439    -15.470303    4.756089    -5.853696    -3.119340    -2.699816    -5.744224    0.828881    -15.286638    0.809504    -1.126364    21.718246    0.505454    5.803596    -3.985768    -3.454482    3.472331    -2.972286    -3.104052    -8.852399    3.840565    4.593040    -0.406021    -4.142897    0.101343    -2.476726    6.449637    -7.615463    17.664898    0.000000    0.000000    0.000000    -0.373727    0.755457    -2.208942    2.693807    4.823326    -1.627136    0.076918    -7.984426    -4.969319    0.000000    0.000000    0.000000    
14.688357    92.873978    25.212646    -0.473145    -1.446724    89.548035    -0.041308    -7.321371    1.601461    3.723442    6.237894    1.401144    1.159032    1.088759    -4.214207    3.284188    1.176184    -4.112604    10.258717    -0.666540    5.220315    -16.758816    2.585148    -15.455196    4.783976    -5.834911    -3.106710    -2.775019    -5.724248    0.766954    -15.251778    0.795865    -1.079074    21.712013    0.539165    5.787524    -4.001454    -3.488049    3.498552    -2.991102    -3.133636    -8.896391    3.839633    4.620332    -0.409600    -4.143960    0.099761    -2.476412    6.453683    -7.610830    17.672756    0.000000    0.000000    0.000000    -0.372495    0.782853    -2.229445    2.693379    4.826035    -1.613443    0.060964    -7.990799    -4.966133    0.000000    0.000000    0.000000    
14.699441    92.874092    25.212891    -0.477666    -1.446023    89.540161    0.016097    -7.331246    1.593162    3.627112    6.208777    1.395386    1.206829    1.116364    -4.199592    3.274583    1.159046    -4.104508    10.277380    -0.651625    5.224910    -16.742073    2.596792    -15.437728    4.779942    -5.839326    -3.101672    -2.778717    -5.728431    0.743304    -15.217784    0.807633    -0.997287    21.718578    0.530541    5.776517    -3.996139    -3.475038    3.483296    -2.992140    -3.124622    -8.768077    3.837246    4.622338    -0.415484    -4.140862    0.109197    -2.482141    6.459974    -7.625752    17.691257    0.000000    0.000000    0.000000    -0.374241    0.782450    -2.235326    2.697335    4.822075    -1.658177    0.107645    -7.979474    -4.917052    0.000000    0.000000    0.000000    
14.713088    92.874458    25.215572    -0.467037    -1.450827    89.531227    0.056439    -7.337761    1.595720    3.559541    6.207510    1.399025    1.208005    1.126161    -4.204602    3.360612    1.144465    -4.097971    10.305132    -0.649098    5.221157    -16.748907    2.582713    -15.440626    4.775127    -5.825326    -3.089116    -2.773304    -5.714961    0.739808    -15.181419    0.835208    -0.962140    21.713560    0.502203    5.794443    -4.020103    -3.511249    3.513274    -2.963126    -3.158653    -8.869923    3.841044    4.642358    -0.411726    -4.139098    0.105458    -2.478489    6.458829    -7.624484    17.694876    0.000000    0.000000    0.000000    -0.367568    0.800677    -2.220840    2.698556    4.830936    -1.623525    0.082321    -7.993432    -4.970403    0.000000    0.000000    0.000000    
14.730263    92.873749    25.216457    -0.452094    -1.449746    89.529427    0.119229    -7.345040    1.583469    3.438727    6.214051    1.389117    1.292903    1.120153    -4.187236    3.325728    1.137557    -4.096146    10.361635    -0.652741    5.242860    -16.766346    2.562022    -15.436144    4.775465    -5.805145    -3.072390    -2.797351    -5.695005    0.714972    -15.124576    0.822475    -0.890387    21.712391    0.515111    5.786737    -4.025301    -3.453695    3.539408    -2.921813    -3.104711    -8.810236    3.844793    4.669497    -0.409632    -4.146814    0.101419    -2.484133    6.455200    -7.631208    17.695427    0.000000    0.000000    0.000000    -0.365122    0.823258    -2.245031    2.685044    4.830433    -1.607483    0.058984    -8.003399    -4.936885    0.000000    0.000000    0.000000    
